ISO-10303-21;
HEADER;
FILE_DESCRIPTION(('FreeCAD Model'),'2;1');
FILE_NAME('Open CASCADE Shape Model','2026-10-06T23:18:11',('FreeCAD'),(
    'FreeCAD'),'Open CASCADE STEP processor 7.8','FreeCAD','Unknown');
FILE_SCHEMA(('AUTOMOTIVE_DESIGN { 1 0 10303 214 1 1 1 1 }'));
ENDSEC;
DATA;
#1 = APPLICATION_PROTOCOL_DEFINITION('international standard',
  'automotive_design',2000,#2);
#2 = APPLICATION_CONTEXT(
  'core data for automotive mechanical design processes');
#3 = SHAPE_DEFINITION_REPRESENTATION(#4,#10);
#4 = PRODUCT_DEFINITION_SHAPE('','',#5);
#5 = PRODUCT_DEFINITION('design','',#6,#9);
#6 = PRODUCT_DEFINITION_FORMATION('','',#7);
#7 = PRODUCT('Open CASCADE STEP translator 7.8 1',
  'Open CASCADE STEP translator 7.8 1','',(#8));
#8 = PRODUCT_CONTEXT('',#2,'mechanical');
#9 = PRODUCT_DEFINITION_CONTEXT('part definition',#2,'design');
#10 = ADVANCED_BREP_SHAPE_REPRESENTATION('',(#11,#15),#1096);
#11 = AXIS2_PLACEMENT_3D('',#12,#13,#14);
#12 = CARTESIAN_POINT('',(0.,0.,0.));
#13 = DIRECTION('',(0.,0.,1.));
#14 = DIRECTION('',(1.,0.,-0.));
#15 = MANIFOLD_SOLID_BREP('',#16);
#16 = CLOSED_SHELL('',(#17,#132,#163,#222,#254,#278,#294,#348,#364,#381,
    #399,#423,#440,#465,#511,#523,#548,#565,#608,#694,#752,#831,#882,
    #899,#916,#933,#950,#962,#979,#996,#1008,#1024,#1042,#1052,#1068,
    #1086));
#17 = ADVANCED_FACE('',(#18,#116),#127,.F.);
#18 = FACE_BOUND('',#19,.F.);
#19 = EDGE_LOOP('',(#20,#30,#38,#46,#54,#62,#70,#78,#86,#94,#102,#110));
#20 = ORIENTED_EDGE('',*,*,#21,.T.);
#21 = EDGE_CURVE('',#22,#24,#26,.T.);
#22 = VERTEX_POINT('',#23);
#23 = CARTESIAN_POINT('',(-39.7,18.9,-1.8));
#24 = VERTEX_POINT('',#25);
#25 = CARTESIAN_POINT('',(-39.7,18.9,14.));
#26 = LINE('',#27,#28);
#27 = CARTESIAN_POINT('',(-39.7,18.9,-1.8));
#28 = VECTOR('',#29,1.);
#29 = DIRECTION('',(6.216890878458E-17,-4.922328269216E-32,1.));
#30 = ORIENTED_EDGE('',*,*,#31,.F.);
#31 = EDGE_CURVE('',#32,#24,#34,.T.);
#32 = VERTEX_POINT('',#33);
#33 = CARTESIAN_POINT('',(-39.7,-18.9,14.));
#34 = LINE('',#35,#36);
#35 = CARTESIAN_POINT('',(-39.7,-18.9,14.));
#36 = VECTOR('',#37,1.);
#37 = DIRECTION('',(-1.731912112471E-16,1.,-2.999519565324E-32));
#38 = ORIENTED_EDGE('',*,*,#39,.F.);
#39 = EDGE_CURVE('',#40,#32,#42,.T.);
#40 = VERTEX_POINT('',#41);
#41 = CARTESIAN_POINT('',(-39.7,-18.9,-1.8));
#42 = LINE('',#43,#44);
#43 = CARTESIAN_POINT('',(-39.7,-18.9,-1.8));
#44 = VECTOR('',#45,1.);
#45 = DIRECTION('',(6.216890878458E-17,-4.922328269216E-32,1.));
#46 = ORIENTED_EDGE('',*,*,#47,.T.);
#47 = EDGE_CURVE('',#40,#48,#50,.T.);
#48 = VERTEX_POINT('',#49);
#49 = CARTESIAN_POINT('',(-39.7,-6.,-1.8));
#50 = LINE('',#51,#52);
#51 = CARTESIAN_POINT('',(-39.7,-18.9,-1.8));
#52 = VECTOR('',#53,1.);
#53 = DIRECTION('',(-1.731912112471E-16,1.,-2.999519565324E-32));
#54 = ORIENTED_EDGE('',*,*,#55,.T.);
#55 = EDGE_CURVE('',#48,#56,#58,.T.);
#56 = VERTEX_POINT('',#57);
#57 = CARTESIAN_POINT('',(-39.7,-6.,4.2));
#58 = LINE('',#59,#60);
#59 = CARTESIAN_POINT('',(-39.7,-6.,1.2));
#60 = VECTOR('',#61,1.);
#61 = DIRECTION('',(8.659560562355E-17,2.22044604925E-16,1.));
#62 = ORIENTED_EDGE('',*,*,#63,.T.);
#63 = EDGE_CURVE('',#56,#64,#66,.T.);
#64 = VERTEX_POINT('',#65);
#65 = CARTESIAN_POINT('',(-39.7,-4.,4.2));
#66 = LINE('',#67,#68);
#67 = CARTESIAN_POINT('',(-39.7,-6.,4.2));
#68 = VECTOR('',#69,1.);
#69 = DIRECTION('',(-8.659560562355E-17,1.,-2.22044604925E-16));
#70 = ORIENTED_EDGE('',*,*,#71,.F.);
#71 = EDGE_CURVE('',#72,#64,#74,.T.);
#72 = VERTEX_POINT('',#73);
#73 = CARTESIAN_POINT('',(-39.7,-4.,1.2));
#74 = LINE('',#75,#76);
#75 = CARTESIAN_POINT('',(-39.7,-4.,1.2));
#76 = VECTOR('',#77,1.);
#77 = DIRECTION('',(8.659560562355E-17,2.22044604925E-16,1.));
#78 = ORIENTED_EDGE('',*,*,#79,.F.);
#79 = EDGE_CURVE('',#80,#72,#82,.T.);
#80 = VERTEX_POINT('',#81);
#81 = CARTESIAN_POINT('',(-39.7,4.,1.2));
#82 = LINE('',#83,#84);
#83 = CARTESIAN_POINT('',(-39.7,-12.45,1.2));
#84 = VECTOR('',#85,1.);
#85 = DIRECTION('',(1.731912112471E-16,-1.,2.999519565324E-32));
#86 = ORIENTED_EDGE('',*,*,#87,.T.);
#87 = EDGE_CURVE('',#80,#88,#90,.T.);
#88 = VERTEX_POINT('',#89);
#89 = CARTESIAN_POINT('',(-39.7,4.,4.2));
#90 = LINE('',#91,#92);
#91 = CARTESIAN_POINT('',(-39.7,4.,1.2));
#92 = VECTOR('',#93,1.);
#93 = DIRECTION('',(0.,2.22044604925E-16,1.));
#94 = ORIENTED_EDGE('',*,*,#95,.T.);
#95 = EDGE_CURVE('',#88,#96,#98,.T.);
#96 = VERTEX_POINT('',#97);
#97 = CARTESIAN_POINT('',(-39.7,6.,4.2));
#98 = LINE('',#99,#100);
#99 = CARTESIAN_POINT('',(-39.7,4.,4.2));
#100 = VECTOR('',#101,1.);
#101 = DIRECTION('',(0.,1.,-2.22044604925E-16));
#102 = ORIENTED_EDGE('',*,*,#103,.F.);
#103 = EDGE_CURVE('',#104,#96,#106,.T.);
#104 = VERTEX_POINT('',#105);
#105 = CARTESIAN_POINT('',(-39.7,6.,-1.8));
#106 = LINE('',#107,#108);
#107 = CARTESIAN_POINT('',(-39.7,6.,-1.8));
#108 = VECTOR('',#109,1.);
#109 = DIRECTION('',(6.216890878458E-17,0.,1.));
#110 = ORIENTED_EDGE('',*,*,#111,.T.);
#111 = EDGE_CURVE('',#104,#22,#112,.T.);
#112 = LINE('',#113,#114);
#113 = CARTESIAN_POINT('',(-39.7,-18.9,-1.8));
#114 = VECTOR('',#115,1.);
#115 = DIRECTION('',(-1.731912112471E-16,1.,-2.999519565324E-32));
#116 = FACE_BOUND('',#117,.F.);
#117 = EDGE_LOOP('',(#118));
#118 = ORIENTED_EDGE('',*,*,#119,.T.);
#119 = EDGE_CURVE('',#120,#120,#122,.T.);
#120 = VERTEX_POINT('',#121);
#121 = CARTESIAN_POINT('',(-39.7,-5.662841483546E-16,3.45));
#122 = CIRCLE('',#123,3.25);
#123 = AXIS2_PLACEMENT_3D('',#124,#125,#126);
#124 = CARTESIAN_POINT('',(-39.7,2.297362710912E-16,6.7));
#125 = DIRECTION('',(-1.,-1.731912112471E-16,-4.885339367793E-17));
#126 = DIRECTION('',(4.885339367793E-17,6.845136973109E-32,-1.));
#127 = PLANE('',#128);
#128 = AXIS2_PLACEMENT_3D('',#129,#130,#131);
#129 = CARTESIAN_POINT('',(-39.7,-18.9,-1.8));
#130 = DIRECTION('',(1.,1.731912112471E-16,-6.216890878458E-17));
#131 = DIRECTION('',(6.216890878458E-17,-4.922328269216E-32,1.));
#132 = ADVANCED_FACE('',(#133),#158,.T.);
#133 = FACE_BOUND('',#134,.T.);
#134 = EDGE_LOOP('',(#135,#143,#144,#152));
#135 = ORIENTED_EDGE('',*,*,#136,.F.);
#136 = EDGE_CURVE('',#22,#137,#139,.T.);
#137 = VERTEX_POINT('',#138);
#138 = CARTESIAN_POINT('',(-17.2,18.9,-1.8));
#139 = LINE('',#140,#141);
#140 = CARTESIAN_POINT('',(-39.7,18.9,-1.8));
#141 = VECTOR('',#142,1.);
#142 = DIRECTION('',(1.,1.731912112471E-16,-6.216890878458E-17));
#143 = ORIENTED_EDGE('',*,*,#21,.T.);
#144 = ORIENTED_EDGE('',*,*,#145,.T.);
#145 = EDGE_CURVE('',#24,#146,#148,.T.);
#146 = VERTEX_POINT('',#147);
#147 = CARTESIAN_POINT('',(-17.2,18.9,14.));
#148 = LINE('',#149,#150);
#149 = CARTESIAN_POINT('',(-39.7,18.9,14.));
#150 = VECTOR('',#151,1.);
#151 = DIRECTION('',(1.,1.731912112471E-16,-6.216890878458E-17));
#152 = ORIENTED_EDGE('',*,*,#153,.F.);
#153 = EDGE_CURVE('',#137,#146,#154,.T.);
#154 = LINE('',#155,#156);
#155 = CARTESIAN_POINT('',(-17.2,18.9,-1.8));
#156 = VECTOR('',#157,1.);
#157 = DIRECTION('',(6.216890878458E-17,-4.922328269216E-32,1.));
#158 = PLANE('',#159);
#159 = AXIS2_PLACEMENT_3D('',#160,#161,#162);
#160 = CARTESIAN_POINT('',(-39.7,18.9,-1.8));
#161 = DIRECTION('',(-1.731912112471E-16,1.,-2.999519565324E-32));
#162 = DIRECTION('',(6.216890878458E-17,-4.922328269216E-32,1.));
#163 = ADVANCED_FACE('',(#164,#206),#217,.T.);
#164 = FACE_BOUND('',#165,.T.);
#165 = EDGE_LOOP('',(#166,#174,#175,#183,#192,#198,#199,#200));
#166 = ORIENTED_EDGE('',*,*,#167,.F.);
#167 = EDGE_CURVE('',#40,#168,#170,.T.);
#168 = VERTEX_POINT('',#169);
#169 = CARTESIAN_POINT('',(-17.2,-18.9,-1.8));
#170 = LINE('',#171,#172);
#171 = CARTESIAN_POINT('',(-39.7,-18.9,-1.8));
#172 = VECTOR('',#173,1.);
#173 = DIRECTION('',(1.,1.731912112471E-16,-6.216890878458E-17));
#174 = ORIENTED_EDGE('',*,*,#47,.T.);
#175 = ORIENTED_EDGE('',*,*,#176,.F.);
#176 = EDGE_CURVE('',#177,#48,#179,.T.);
#177 = VERTEX_POINT('',#178);
#178 = CARTESIAN_POINT('',(-45.7,-6.,-1.8));
#179 = LINE('',#180,#181);
#180 = CARTESIAN_POINT('',(-45.7,-6.,-1.8));
#181 = VECTOR('',#182,1.);
#182 = DIRECTION('',(1.,1.731912112471E-16,-1.731912112471E-16));
#183 = ORIENTED_EDGE('',*,*,#184,.F.);
#184 = EDGE_CURVE('',#185,#177,#187,.T.);
#185 = VERTEX_POINT('',#186);
#186 = CARTESIAN_POINT('',(-45.7,6.,-1.8));
#187 = CIRCLE('',#188,6.);
#188 = AXIS2_PLACEMENT_3D('',#189,#190,#191);
#189 = CARTESIAN_POINT('',(-45.7,-8.094109963914E-16,-1.8));
#190 = DIRECTION('',(1.731912112471E-16,5.999039130647E-32,1.));
#191 = DIRECTION('',(1.,1.731912112471E-16,-1.731912112471E-16));
#192 = ORIENTED_EDGE('',*,*,#193,.T.);
#193 = EDGE_CURVE('',#185,#104,#194,.T.);
#194 = LINE('',#195,#196);
#195 = CARTESIAN_POINT('',(-45.7,6.,-1.8));
#196 = VECTOR('',#197,1.);
#197 = DIRECTION('',(1.,1.731912112471E-16,-1.731912112471E-16));
#198 = ORIENTED_EDGE('',*,*,#111,.T.);
#199 = ORIENTED_EDGE('',*,*,#136,.T.);
#200 = ORIENTED_EDGE('',*,*,#201,.F.);
#201 = EDGE_CURVE('',#168,#137,#202,.T.);
#202 = LINE('',#203,#204);
#203 = CARTESIAN_POINT('',(-17.2,-18.9,-1.8));
#204 = VECTOR('',#205,1.);
#205 = DIRECTION('',(-1.731912112471E-16,1.,-2.999519565324E-32));
#206 = FACE_BOUND('',#207,.T.);
#207 = EDGE_LOOP('',(#208));
#208 = ORIENTED_EDGE('',*,*,#209,.F.);
#209 = EDGE_CURVE('',#210,#210,#212,.T.);
#210 = VERTEX_POINT('',#211);
#211 = CARTESIAN_POINT('',(-43.9,-4.40872847693E-16,-1.8));
#212 = CIRCLE('',#213,1.8);
#213 = AXIS2_PLACEMENT_3D('',#214,#215,#216);
#214 = CARTESIAN_POINT('',(-45.7,0.,-1.8));
#215 = DIRECTION('',(0.,0.,-1.));
#216 = DIRECTION('',(1.,0.,0.));
#217 = PLANE('',#218);
#218 = AXIS2_PLACEMENT_3D('',#219,#220,#221);
#219 = CARTESIAN_POINT('',(-31.39988332664,1.667243531242E-15,-1.8));
#220 = DIRECTION('',(-1.731912112471E-16,2.999519565324E-32,-1.));
#221 = DIRECTION('',(-1.,-1.731912112471E-16,1.731912112471E-16));
#222 = ADVANCED_FACE('',(#223),#249,.T.);
#223 = FACE_BOUND('',#224,.T.);
#224 = EDGE_LOOP('',(#225,#226,#234,#242,#248));
#225 = ORIENTED_EDGE('',*,*,#193,.F.);
#226 = ORIENTED_EDGE('',*,*,#227,.T.);
#227 = EDGE_CURVE('',#185,#228,#230,.T.);
#228 = VERTEX_POINT('',#229);
#229 = CARTESIAN_POINT('',(-45.7,6.,1.2));
#230 = LINE('',#231,#232);
#231 = CARTESIAN_POINT('',(-45.7,6.,-1.8));
#232 = VECTOR('',#233,1.);
#233 = DIRECTION('',(1.731912112471E-16,-2.999519565324E-32,1.));
#234 = ORIENTED_EDGE('',*,*,#235,.T.);
#235 = EDGE_CURVE('',#228,#236,#238,.T.);
#236 = VERTEX_POINT('',#237);
#237 = CARTESIAN_POINT('',(-42.7,6.,1.2));
#238 = LINE('',#239,#240);
#239 = CARTESIAN_POINT('',(-45.7,6.,1.2));
#240 = VECTOR('',#241,1.);
#241 = DIRECTION('',(1.,1.731912112471E-16,-1.731912112471E-16));
#242 = ORIENTED_EDGE('',*,*,#243,.T.);
#243 = EDGE_CURVE('',#236,#96,#244,.T.);
#244 = LINE('',#245,#246);
#245 = CARTESIAN_POINT('',(-42.7,6.,1.2));
#246 = VECTOR('',#247,1.);
#247 = DIRECTION('',(0.707106781187,1.570092458684E-16,0.707106781187));
#248 = ORIENTED_EDGE('',*,*,#103,.F.);
#249 = PLANE('',#250);
#250 = AXIS2_PLACEMENT_3D('',#251,#252,#253);
#251 = CARTESIAN_POINT('',(-42.21157053771,6.,0.474544817034));
#252 = DIRECTION('',(-2.272334966426E-16,1.,2.770219931124E-17));
#253 = DIRECTION('',(3.708017783008E-49,-2.770219931124E-17,1.));
#254 = ADVANCED_FACE('',(#255),#273,.T.);
#255 = FACE_BOUND('',#256,.T.);
#256 = EDGE_LOOP('',(#257,#265,#271,#272));
#257 = ORIENTED_EDGE('',*,*,#258,.F.);
#258 = EDGE_CURVE('',#259,#236,#261,.T.);
#259 = VERTEX_POINT('',#260);
#260 = CARTESIAN_POINT('',(-42.7,4.,1.2));
#261 = LINE('',#262,#263);
#262 = CARTESIAN_POINT('',(-42.7,4.,1.2));
#263 = VECTOR('',#264,1.);
#264 = DIRECTION('',(0.,1.,-2.22044604925E-16));
#265 = ORIENTED_EDGE('',*,*,#266,.T.);
#266 = EDGE_CURVE('',#259,#88,#267,.T.);
#267 = LINE('',#268,#269);
#268 = CARTESIAN_POINT('',(-42.7,4.,1.2));
#269 = VECTOR('',#270,1.);
#270 = DIRECTION('',(0.707106781187,1.570092458684E-16,0.707106781187));
#271 = ORIENTED_EDGE('',*,*,#95,.T.);
#272 = ORIENTED_EDGE('',*,*,#243,.F.);
#273 = PLANE('',#274);
#274 = AXIS2_PLACEMENT_3D('',#275,#276,#277);
#275 = CARTESIAN_POINT('',(-42.7,4.,1.2));
#276 = DIRECTION('',(-0.707106781187,1.570092458684E-16,0.707106781187)
  );
#277 = DIRECTION('',(-0.707106781187,-1.570092458684E-16,-0.707106781187
    ));
#278 = ADVANCED_FACE('',(#279),#289,.F.);
#279 = FACE_BOUND('',#280,.F.);
#280 = EDGE_LOOP('',(#281,#282,#288));
#281 = ORIENTED_EDGE('',*,*,#87,.F.);
#282 = ORIENTED_EDGE('',*,*,#283,.T.);
#283 = EDGE_CURVE('',#80,#259,#284,.T.);
#284 = LINE('',#285,#286);
#285 = CARTESIAN_POINT('',(-39.7,4.,1.2));
#286 = VECTOR('',#287,1.);
#287 = DIRECTION('',(-1.,0.,0.));
#288 = ORIENTED_EDGE('',*,*,#266,.T.);
#289 = PLANE('',#290);
#290 = AXIS2_PLACEMENT_3D('',#291,#292,#293);
#291 = CARTESIAN_POINT('',(-39.7,4.,1.2));
#292 = DIRECTION('',(0.,1.,-2.22044604925E-16));
#293 = DIRECTION('',(-1.,0.,0.));
#294 = ADVANCED_FACE('',(#295,#332),#343,.T.);
#295 = FACE_BOUND('',#296,.T.);
#296 = EDGE_LOOP('',(#297,#298,#307,#315,#323,#329,#330,#331));
#297 = ORIENTED_EDGE('',*,*,#235,.F.);
#298 = ORIENTED_EDGE('',*,*,#299,.T.);
#299 = EDGE_CURVE('',#228,#300,#302,.T.);
#300 = VERTEX_POINT('',#301);
#301 = CARTESIAN_POINT('',(-45.7,-6.,1.2));
#302 = CIRCLE('',#303,6.);
#303 = AXIS2_PLACEMENT_3D('',#304,#305,#306);
#304 = CARTESIAN_POINT('',(-45.7,-8.094109963914E-16,1.2));
#305 = DIRECTION('',(1.731912112471E-16,5.999039130647E-32,1.));
#306 = DIRECTION('',(1.,1.731912112471E-16,-1.731912112471E-16));
#307 = ORIENTED_EDGE('',*,*,#308,.T.);
#308 = EDGE_CURVE('',#300,#309,#311,.T.);
#309 = VERTEX_POINT('',#310);
#310 = CARTESIAN_POINT('',(-42.7,-6.,1.2));
#311 = LINE('',#312,#313);
#312 = CARTESIAN_POINT('',(-45.7,-6.,1.2));
#313 = VECTOR('',#314,1.);
#314 = DIRECTION('',(1.,1.731912112471E-16,-1.731912112471E-16));
#315 = ORIENTED_EDGE('',*,*,#316,.T.);
#316 = EDGE_CURVE('',#309,#317,#319,.T.);
#317 = VERTEX_POINT('',#318);
#318 = CARTESIAN_POINT('',(-42.7,-4.,1.2));
#319 = LINE('',#320,#321);
#320 = CARTESIAN_POINT('',(-42.7,-6.,1.2));
#321 = VECTOR('',#322,1.);
#322 = DIRECTION('',(-8.659560562355E-17,1.,-2.22044604925E-16));
#323 = ORIENTED_EDGE('',*,*,#324,.F.);
#324 = EDGE_CURVE('',#72,#317,#325,.T.);
#325 = LINE('',#326,#327);
#326 = CARTESIAN_POINT('',(-39.7,-4.,1.2));
#327 = VECTOR('',#328,1.);
#328 = DIRECTION('',(-1.,-8.659560562355E-17,8.659560562355E-17));
#329 = ORIENTED_EDGE('',*,*,#79,.F.);
#330 = ORIENTED_EDGE('',*,*,#283,.T.);
#331 = ORIENTED_EDGE('',*,*,#258,.T.);
#332 = FACE_BOUND('',#333,.T.);
#333 = EDGE_LOOP('',(#334));
#334 = ORIENTED_EDGE('',*,*,#335,.F.);
#335 = EDGE_CURVE('',#336,#336,#338,.T.);
#336 = VERTEX_POINT('',#337);
#337 = CARTESIAN_POINT('',(-42.10994475138,-8.793099337966E-16,1.2));
#338 = CIRCLE('',#339,3.590055248619);
#339 = AXIS2_PLACEMENT_3D('',#340,#341,#342);
#340 = CARTESIAN_POINT('',(-45.7,0.,1.2));
#341 = DIRECTION('',(0.,0.,1.));
#342 = DIRECTION('',(1.,0.,0.));
#343 = PLANE('',#344);
#344 = AXIS2_PLACEMENT_3D('',#345,#346,#347);
#345 = CARTESIAN_POINT('',(-44.61318640648,9.78171441213E-17,1.2));
#346 = DIRECTION('',(1.731912112471E-16,-2.999519565324E-32,1.));
#347 = DIRECTION('',(1.,1.731912112471E-16,-1.731912112471E-16));
#348 = ADVANCED_FACE('',(#349),#359,.T.);
#349 = FACE_BOUND('',#350,.T.);
#350 = EDGE_LOOP('',(#351,#352,#353));
#351 = ORIENTED_EDGE('',*,*,#71,.F.);
#352 = ORIENTED_EDGE('',*,*,#324,.T.);
#353 = ORIENTED_EDGE('',*,*,#354,.T.);
#354 = EDGE_CURVE('',#317,#64,#355,.T.);
#355 = LINE('',#356,#357);
#356 = CARTESIAN_POINT('',(-42.7,-4.,1.2));
#357 = VECTOR('',#358,1.);
#358 = DIRECTION('',(0.707106781187,2.182415858257E-16,0.707106781187));
#359 = PLANE('',#360);
#360 = AXIS2_PLACEMENT_3D('',#361,#362,#363);
#361 = CARTESIAN_POINT('',(-39.7,-4.,1.2));
#362 = DIRECTION('',(-8.659560562355E-17,1.,-2.22044604925E-16));
#363 = DIRECTION('',(-1.,-8.659560562355E-17,8.659560562355E-17));
#364 = ADVANCED_FACE('',(#365),#376,.T.);
#365 = FACE_BOUND('',#366,.T.);
#366 = EDGE_LOOP('',(#367,#368,#374,#375));
#367 = ORIENTED_EDGE('',*,*,#316,.F.);
#368 = ORIENTED_EDGE('',*,*,#369,.T.);
#369 = EDGE_CURVE('',#309,#56,#370,.T.);
#370 = LINE('',#371,#372);
#371 = CARTESIAN_POINT('',(-42.7,-6.,1.2));
#372 = VECTOR('',#373,1.);
#373 = DIRECTION('',(0.707106781187,2.182415858257E-16,0.707106781187));
#374 = ORIENTED_EDGE('',*,*,#63,.T.);
#375 = ORIENTED_EDGE('',*,*,#354,.F.);
#376 = PLANE('',#377);
#377 = AXIS2_PLACEMENT_3D('',#378,#379,#380);
#378 = CARTESIAN_POINT('',(-42.7,-6.,1.2));
#379 = DIRECTION('',(-0.707106781187,9.577690591101E-17,0.707106781187)
  );
#380 = DIRECTION('',(-0.707106781187,-2.182415858257E-16,-0.707106781187
    ));
#381 = ADVANCED_FACE('',(#382),#394,.T.);
#382 = FACE_BOUND('',#383,.T.);
#383 = EDGE_LOOP('',(#384,#385,#386,#387,#393));
#384 = ORIENTED_EDGE('',*,*,#55,.T.);
#385 = ORIENTED_EDGE('',*,*,#369,.F.);
#386 = ORIENTED_EDGE('',*,*,#308,.F.);
#387 = ORIENTED_EDGE('',*,*,#388,.F.);
#388 = EDGE_CURVE('',#177,#300,#389,.T.);
#389 = LINE('',#390,#391);
#390 = CARTESIAN_POINT('',(-45.7,-6.,-1.8));
#391 = VECTOR('',#392,1.);
#392 = DIRECTION('',(1.731912112471E-16,-2.999519565324E-32,1.));
#393 = ORIENTED_EDGE('',*,*,#176,.T.);
#394 = PLANE('',#395);
#395 = AXIS2_PLACEMENT_3D('',#396,#397,#398);
#396 = CARTESIAN_POINT('',(-42.21157053771,-6.,0.474544817034));
#397 = DIRECTION('',(8.659560562355E-17,-1.,2.22044604925E-16));
#398 = DIRECTION('',(1.,8.659560562355E-17,-8.659560562355E-17));
#399 = ADVANCED_FACE('',(#400),#418,.F.);
#400 = FACE_BOUND('',#401,.F.);
#401 = EDGE_LOOP('',(#402,#403,#404,#412));
#402 = ORIENTED_EDGE('',*,*,#167,.F.);
#403 = ORIENTED_EDGE('',*,*,#39,.T.);
#404 = ORIENTED_EDGE('',*,*,#405,.T.);
#405 = EDGE_CURVE('',#32,#406,#408,.T.);
#406 = VERTEX_POINT('',#407);
#407 = CARTESIAN_POINT('',(-17.2,-18.9,14.));
#408 = LINE('',#409,#410);
#409 = CARTESIAN_POINT('',(-39.7,-18.9,14.));
#410 = VECTOR('',#411,1.);
#411 = DIRECTION('',(1.,1.731912112471E-16,-6.216890878458E-17));
#412 = ORIENTED_EDGE('',*,*,#413,.F.);
#413 = EDGE_CURVE('',#168,#406,#414,.T.);
#414 = LINE('',#415,#416);
#415 = CARTESIAN_POINT('',(-17.2,-18.9,-1.8));
#416 = VECTOR('',#417,1.);
#417 = DIRECTION('',(6.216890878458E-17,-4.922328269216E-32,1.));
#418 = PLANE('',#419);
#419 = AXIS2_PLACEMENT_3D('',#420,#421,#422);
#420 = CARTESIAN_POINT('',(-39.7,-18.9,-1.8));
#421 = DIRECTION('',(-1.731912112471E-16,1.,-2.999519565324E-32));
#422 = DIRECTION('',(6.216890878458E-17,-4.922328269216E-32,1.));
#423 = ADVANCED_FACE('',(#424),#435,.T.);
#424 = FACE_BOUND('',#425,.T.);
#425 = EDGE_LOOP('',(#426,#427,#428,#434));
#426 = ORIENTED_EDGE('',*,*,#31,.F.);
#427 = ORIENTED_EDGE('',*,*,#405,.T.);
#428 = ORIENTED_EDGE('',*,*,#429,.T.);
#429 = EDGE_CURVE('',#406,#146,#430,.T.);
#430 = LINE('',#431,#432);
#431 = CARTESIAN_POINT('',(-17.2,-18.9,14.));
#432 = VECTOR('',#433,1.);
#433 = DIRECTION('',(-1.731912112471E-16,1.,-2.999519565324E-32));
#434 = ORIENTED_EDGE('',*,*,#145,.F.);
#435 = PLANE('',#436);
#436 = AXIS2_PLACEMENT_3D('',#437,#438,#439);
#437 = CARTESIAN_POINT('',(-39.7,-18.9,14.));
#438 = DIRECTION('',(6.216890878458E-17,-4.922328269216E-32,1.));
#439 = DIRECTION('',(1.,1.731912112471E-16,-6.216890878458E-17));
#440 = ADVANCED_FACE('',(#441),#460,.F.);
#441 = FACE_BOUND('',#442,.T.);
#442 = EDGE_LOOP('',(#443,#444,#452,#459));
#443 = ORIENTED_EDGE('',*,*,#119,.T.);
#444 = ORIENTED_EDGE('',*,*,#445,.T.);
#445 = EDGE_CURVE('',#120,#446,#448,.T.);
#446 = VERTEX_POINT('',#447);
#447 = CARTESIAN_POINT('',(-37.2,-1.333061202368E-16,3.45));
#448 = LINE('',#449,#450);
#449 = CARTESIAN_POINT('',(-39.8,-5.836032694793E-16,3.45));
#450 = VECTOR('',#451,1.);
#451 = DIRECTION('',(1.,1.731912112471E-16,4.885339367793E-17));
#452 = ORIENTED_EDGE('',*,*,#453,.F.);
#453 = EDGE_CURVE('',#446,#446,#454,.T.);
#454 = CIRCLE('',#455,3.25);
#455 = AXIS2_PLACEMENT_3D('',#456,#457,#458);
#456 = CARTESIAN_POINT('',(-37.2,6.627142992089E-16,6.7));
#457 = DIRECTION('',(-1.,-1.731912112471E-16,-4.885339367793E-17));
#458 = DIRECTION('',(4.885339367793E-17,6.845136973109E-32,-1.));
#459 = ORIENTED_EDGE('',*,*,#445,.F.);
#460 = CYLINDRICAL_SURFACE('',#461,3.25);
#461 = AXIS2_PLACEMENT_3D('',#462,#463,#464);
#462 = CARTESIAN_POINT('',(-39.8,2.124171499665E-16,6.7));
#463 = DIRECTION('',(-1.,-1.731912112471E-16,-4.885339367793E-17));
#464 = DIRECTION('',(4.885339367793E-17,6.845136973109E-32,-1.));
#465 = ADVANCED_FACE('',(#466,#472),#506,.T.);
#466 = FACE_BOUND('',#467,.T.);
#467 = EDGE_LOOP('',(#468,#469,#470,#471));
#468 = ORIENTED_EDGE('',*,*,#413,.F.);
#469 = ORIENTED_EDGE('',*,*,#201,.T.);
#470 = ORIENTED_EDGE('',*,*,#153,.T.);
#471 = ORIENTED_EDGE('',*,*,#429,.F.);
#472 = FACE_BOUND('',#473,.T.);
#473 = EDGE_LOOP('',(#474,#484,#492,#500));
#474 = ORIENTED_EDGE('',*,*,#475,.T.);
#475 = EDGE_CURVE('',#476,#478,#480,.T.);
#476 = VERTEX_POINT('',#477);
#477 = CARTESIAN_POINT('',(-17.2,17.3,-0.2));
#478 = VERTEX_POINT('',#479);
#479 = CARTESIAN_POINT('',(-17.2,-17.3,-0.2));
#480 = LINE('',#481,#482);
#481 = CARTESIAN_POINT('',(-17.2,-18.1,-0.2));
#482 = VECTOR('',#483,1.);
#483 = DIRECTION('',(1.731912112471E-16,-1.,2.999519565324E-32));
#484 = ORIENTED_EDGE('',*,*,#485,.T.);
#485 = EDGE_CURVE('',#478,#486,#488,.T.);
#486 = VERTEX_POINT('',#487);
#487 = CARTESIAN_POINT('',(-17.2,-17.3,12.4));
#488 = LINE('',#489,#490);
#489 = CARTESIAN_POINT('',(-17.2,-17.3,-1.));
#490 = VECTOR('',#491,1.);
#491 = DIRECTION('',(6.216890878458E-17,-4.922328269216E-32,1.));
#492 = ORIENTED_EDGE('',*,*,#493,.F.);
#493 = EDGE_CURVE('',#494,#486,#496,.T.);
#494 = VERTEX_POINT('',#495);
#495 = CARTESIAN_POINT('',(-17.2,17.3,12.4));
#496 = LINE('',#497,#498);
#497 = CARTESIAN_POINT('',(-17.2,-18.1,12.4));
#498 = VECTOR('',#499,1.);
#499 = DIRECTION('',(1.731912112471E-16,-1.,2.999519565324E-32));
#500 = ORIENTED_EDGE('',*,*,#501,.F.);
#501 = EDGE_CURVE('',#476,#494,#502,.T.);
#502 = LINE('',#503,#504);
#503 = CARTESIAN_POINT('',(-17.2,17.3,-1.));
#504 = VECTOR('',#505,1.);
#505 = DIRECTION('',(6.216890878458E-17,-4.922328269216E-32,1.));
#506 = PLANE('',#507);
#507 = AXIS2_PLACEMENT_3D('',#508,#509,#510);
#508 = CARTESIAN_POINT('',(-17.2,-18.9,-1.8));
#509 = DIRECTION('',(1.,1.731912112471E-16,-6.216890878458E-17));
#510 = DIRECTION('',(6.216890878458E-17,-4.922328269216E-32,1.));
#511 = ADVANCED_FACE('',(#512),#518,.T.);
#512 = FACE_BOUND('',#513,.F.);
#513 = EDGE_LOOP('',(#514,#515,#516,#517));
#514 = ORIENTED_EDGE('',*,*,#184,.F.);
#515 = ORIENTED_EDGE('',*,*,#227,.T.);
#516 = ORIENTED_EDGE('',*,*,#299,.T.);
#517 = ORIENTED_EDGE('',*,*,#388,.F.);
#518 = CYLINDRICAL_SURFACE('',#519,6.);
#519 = AXIS2_PLACEMENT_3D('',#520,#521,#522);
#520 = CARTESIAN_POINT('',(-45.7,-8.094109963914E-16,-1.8));
#521 = DIRECTION('',(-1.731912112471E-16,2.999519565324E-32,-1.));
#522 = DIRECTION('',(1.,1.731912112471E-16,-1.731912112471E-16));
#523 = ADVANCED_FACE('',(#524),#543,.F.);
#524 = FACE_BOUND('',#525,.T.);
#525 = EDGE_LOOP('',(#526,#534,#535,#536));
#526 = ORIENTED_EDGE('',*,*,#527,.F.);
#527 = EDGE_CURVE('',#210,#528,#530,.T.);
#528 = VERTEX_POINT('',#529);
#529 = CARTESIAN_POINT('',(-43.9,-4.40872847693E-16,-0.6));
#530 = LINE('',#531,#532);
#531 = CARTESIAN_POINT('',(-43.9,-4.40872847693E-16,-1.9));
#532 = VECTOR('',#533,1.);
#533 = DIRECTION('',(0.,0.,1.));
#534 = ORIENTED_EDGE('',*,*,#209,.T.);
#535 = ORIENTED_EDGE('',*,*,#527,.T.);
#536 = ORIENTED_EDGE('',*,*,#537,.T.);
#537 = EDGE_CURVE('',#528,#528,#538,.T.);
#538 = CIRCLE('',#539,1.8);
#539 = AXIS2_PLACEMENT_3D('',#540,#541,#542);
#540 = CARTESIAN_POINT('',(-45.7,0.,-0.6));
#541 = DIRECTION('',(0.,0.,1.));
#542 = DIRECTION('',(1.,0.,0.));
#543 = CYLINDRICAL_SURFACE('',#544,1.8);
#544 = AXIS2_PLACEMENT_3D('',#545,#546,#547);
#545 = CARTESIAN_POINT('',(-45.7,0.,-1.9));
#546 = DIRECTION('',(-0.,-0.,-1.));
#547 = DIRECTION('',(1.,0.,0.));
#548 = ADVANCED_FACE('',(#549),#560,.F.);
#549 = FACE_BOUND('',#550,.F.);
#550 = EDGE_LOOP('',(#551,#552,#558,#559));
#551 = ORIENTED_EDGE('',*,*,#335,.F.);
#552 = ORIENTED_EDGE('',*,*,#553,.F.);
#553 = EDGE_CURVE('',#528,#336,#554,.T.);
#554 = LINE('',#555,#556);
#555 = CARTESIAN_POINT('',(-43.9,-4.40872847693E-16,-0.6));
#556 = VECTOR('',#557,1.);
#557 = DIRECTION('',(0.705145331228,-1.727107945645E-16,0.709062805291)
  );
#558 = ORIENTED_EDGE('',*,*,#537,.T.);
#559 = ORIENTED_EDGE('',*,*,#553,.T.);
#560 = CONICAL_SURFACE('',#561,1.8,0.78262808738);
#561 = AXIS2_PLACEMENT_3D('',#562,#563,#564);
#562 = CARTESIAN_POINT('',(-45.7,0.,-0.6));
#563 = DIRECTION('',(0.,0.,1.));
#564 = DIRECTION('',(1.,0.,0.));
#565 = ADVANCED_FACE('',(#566,#600),#603,.T.);
#566 = FACE_BOUND('',#567,.T.);
#567 = EDGE_LOOP('',(#568,#578,#586,#594));
#568 = ORIENTED_EDGE('',*,*,#569,.F.);
#569 = EDGE_CURVE('',#570,#572,#574,.T.);
#570 = VERTEX_POINT('',#571);
#571 = CARTESIAN_POINT('',(-37.2,-17.3,-0.2));
#572 = VERTEX_POINT('',#573);
#573 = CARTESIAN_POINT('',(-37.2,-17.3,12.4));
#574 = LINE('',#575,#576);
#575 = CARTESIAN_POINT('',(-37.2,-17.3,-0.2));
#576 = VECTOR('',#577,1.);
#577 = DIRECTION('',(6.216890878458E-17,-4.922328269216E-32,1.));
#578 = ORIENTED_EDGE('',*,*,#579,.T.);
#579 = EDGE_CURVE('',#570,#580,#582,.T.);
#580 = VERTEX_POINT('',#581);
#581 = CARTESIAN_POINT('',(-37.2,17.3,-0.2));
#582 = LINE('',#583,#584);
#583 = CARTESIAN_POINT('',(-37.2,-17.3,-0.2));
#584 = VECTOR('',#585,1.);
#585 = DIRECTION('',(-1.731912112471E-16,1.,-2.999519565324E-32));
#586 = ORIENTED_EDGE('',*,*,#587,.T.);
#587 = EDGE_CURVE('',#580,#588,#590,.T.);
#588 = VERTEX_POINT('',#589);
#589 = CARTESIAN_POINT('',(-37.2,17.3,12.4));
#590 = LINE('',#591,#592);
#591 = CARTESIAN_POINT('',(-37.2,17.3,-0.2));
#592 = VECTOR('',#593,1.);
#593 = DIRECTION('',(6.216890878458E-17,-4.922328269216E-32,1.));
#594 = ORIENTED_EDGE('',*,*,#595,.F.);
#595 = EDGE_CURVE('',#572,#588,#596,.T.);
#596 = LINE('',#597,#598);
#597 = CARTESIAN_POINT('',(-37.2,-17.3,12.4));
#598 = VECTOR('',#599,1.);
#599 = DIRECTION('',(-1.731912112471E-16,1.,-2.999519565324E-32));
#600 = FACE_BOUND('',#601,.T.);
#601 = EDGE_LOOP('',(#602));
#602 = ORIENTED_EDGE('',*,*,#453,.T.);
#603 = PLANE('',#604);
#604 = AXIS2_PLACEMENT_3D('',#605,#606,#607);
#605 = CARTESIAN_POINT('',(-37.2,-17.3,-0.2));
#606 = DIRECTION('',(1.,1.731912112471E-16,-6.216890878458E-17));
#607 = DIRECTION('',(6.216890878458E-17,-4.922328269216E-32,1.));
#608 = ADVANCED_FACE('',(#609),#689,.T.);
#609 = FACE_BOUND('',#610,.T.);
#610 = EDGE_LOOP('',(#611,#619,#620,#628,#636,#644,#652,#658,#659,#667,
    #675,#683));
#611 = ORIENTED_EDGE('',*,*,#612,.F.);
#612 = EDGE_CURVE('',#580,#613,#615,.T.);
#613 = VERTEX_POINT('',#614);
#614 = CARTESIAN_POINT('',(-26.7,17.3,-0.2));
#615 = LINE('',#616,#617);
#616 = CARTESIAN_POINT('',(-37.2,17.3,-0.2));
#617 = VECTOR('',#618,1.);
#618 = DIRECTION('',(1.,1.731912112471E-16,-6.216890878458E-17));
#619 = ORIENTED_EDGE('',*,*,#579,.F.);
#620 = ORIENTED_EDGE('',*,*,#621,.T.);
#621 = EDGE_CURVE('',#570,#622,#624,.T.);
#622 = VERTEX_POINT('',#623);
#623 = CARTESIAN_POINT('',(-26.7,-17.3,-0.2));
#624 = LINE('',#625,#626);
#625 = CARTESIAN_POINT('',(-37.2,-17.3,-0.2));
#626 = VECTOR('',#627,1.);
#627 = DIRECTION('',(1.,1.731912112471E-16,-6.216890878458E-17));
#628 = ORIENTED_EDGE('',*,*,#629,.T.);
#629 = EDGE_CURVE('',#622,#630,#632,.T.);
#630 = VERTEX_POINT('',#631);
#631 = CARTESIAN_POINT('',(-26.7,-10.3,-0.2));
#632 = LINE('',#633,#634);
#633 = CARTESIAN_POINT('',(-26.7,-17.3,-0.2));
#634 = VECTOR('',#635,1.);
#635 = DIRECTION('',(-1.731912112471E-16,1.,-2.999519565324E-32));
#636 = ORIENTED_EDGE('',*,*,#637,.T.);
#637 = EDGE_CURVE('',#630,#638,#640,.T.);
#638 = VERTEX_POINT('',#639);
#639 = CARTESIAN_POINT('',(-25.2,-10.3,-0.2));
#640 = LINE('',#641,#642);
#641 = CARTESIAN_POINT('',(-26.7,-10.3,-0.2));
#642 = VECTOR('',#643,1.);
#643 = DIRECTION('',(1.,1.731912112471E-16,-6.216890878458E-17));
#644 = ORIENTED_EDGE('',*,*,#645,.F.);
#645 = EDGE_CURVE('',#646,#638,#648,.T.);
#646 = VERTEX_POINT('',#647);
#647 = CARTESIAN_POINT('',(-25.2,-17.3,-0.2));
#648 = LINE('',#649,#650);
#649 = CARTESIAN_POINT('',(-25.2,-17.3,-0.2));
#650 = VECTOR('',#651,1.);
#651 = DIRECTION('',(-1.731912112471E-16,1.,-2.999519565324E-32));
#652 = ORIENTED_EDGE('',*,*,#653,.T.);
#653 = EDGE_CURVE('',#646,#478,#654,.T.);
#654 = LINE('',#655,#656);
#655 = CARTESIAN_POINT('',(-37.2,-17.3,-0.2));
#656 = VECTOR('',#657,1.);
#657 = DIRECTION('',(1.,1.731912112471E-16,-6.216890878458E-17));
#658 = ORIENTED_EDGE('',*,*,#475,.F.);
#659 = ORIENTED_EDGE('',*,*,#660,.F.);
#660 = EDGE_CURVE('',#661,#476,#663,.T.);
#661 = VERTEX_POINT('',#662);
#662 = CARTESIAN_POINT('',(-25.2,17.3,-0.2));
#663 = LINE('',#664,#665);
#664 = CARTESIAN_POINT('',(-37.2,17.3,-0.2));
#665 = VECTOR('',#666,1.);
#666 = DIRECTION('',(1.,1.731912112471E-16,-6.216890878458E-17));
#667 = ORIENTED_EDGE('',*,*,#668,.F.);
#668 = EDGE_CURVE('',#669,#661,#671,.T.);
#669 = VERTEX_POINT('',#670);
#670 = CARTESIAN_POINT('',(-25.2,10.3,-0.2));
#671 = LINE('',#672,#673);
#672 = CARTESIAN_POINT('',(-25.2,10.3,-0.2));
#673 = VECTOR('',#674,1.);
#674 = DIRECTION('',(-1.731912112471E-16,1.,-2.999519565324E-32));
#675 = ORIENTED_EDGE('',*,*,#676,.F.);
#676 = EDGE_CURVE('',#677,#669,#679,.T.);
#677 = VERTEX_POINT('',#678);
#678 = CARTESIAN_POINT('',(-26.7,10.3,-0.2));
#679 = LINE('',#680,#681);
#680 = CARTESIAN_POINT('',(-26.7,10.3,-0.2));
#681 = VECTOR('',#682,1.);
#682 = DIRECTION('',(1.,1.731912112471E-16,-6.216890878458E-17));
#683 = ORIENTED_EDGE('',*,*,#684,.T.);
#684 = EDGE_CURVE('',#677,#613,#685,.T.);
#685 = LINE('',#686,#687);
#686 = CARTESIAN_POINT('',(-26.7,10.3,-0.2));
#687 = VECTOR('',#688,1.);
#688 = DIRECTION('',(-1.731912112471E-16,1.,-2.999519565324E-32));
#689 = PLANE('',#690);
#690 = AXIS2_PLACEMENT_3D('',#691,#692,#693);
#691 = CARTESIAN_POINT('',(-37.2,-17.3,-0.2));
#692 = DIRECTION('',(6.216890878458E-17,-4.922328269216E-32,1.));
#693 = DIRECTION('',(1.,1.731912112471E-16,-6.216890878458E-17));
#694 = ADVANCED_FACE('',(#695,#713),#747,.F.);
#695 = FACE_BOUND('',#696,.F.);
#696 = EDGE_LOOP('',(#697,#698,#706,#712));
#697 = ORIENTED_EDGE('',*,*,#660,.F.);
#698 = ORIENTED_EDGE('',*,*,#699,.T.);
#699 = EDGE_CURVE('',#661,#700,#702,.T.);
#700 = VERTEX_POINT('',#701);
#701 = CARTESIAN_POINT('',(-25.2,17.3,12.4));
#702 = LINE('',#703,#704);
#703 = CARTESIAN_POINT('',(-25.2,17.3,-0.2));
#704 = VECTOR('',#705,1.);
#705 = DIRECTION('',(6.216890878458E-17,-4.922328269216E-32,1.));
#706 = ORIENTED_EDGE('',*,*,#707,.T.);
#707 = EDGE_CURVE('',#700,#494,#708,.T.);
#708 = LINE('',#709,#710);
#709 = CARTESIAN_POINT('',(-37.2,17.3,12.4));
#710 = VECTOR('',#711,1.);
#711 = DIRECTION('',(1.,1.731912112471E-16,-6.216890878458E-17));
#712 = ORIENTED_EDGE('',*,*,#501,.F.);
#713 = FACE_BOUND('',#714,.F.);
#714 = EDGE_LOOP('',(#715,#725,#733,#741));
#715 = ORIENTED_EDGE('',*,*,#716,.F.);
#716 = EDGE_CURVE('',#717,#719,#721,.T.);
#717 = VERTEX_POINT('',#718);
#718 = CARTESIAN_POINT('',(-22.11651513899,17.3,9.1));
#719 = VERTEX_POINT('',#720);
#720 = CARTESIAN_POINT('',(-20.283484861,17.3,9.1));
#721 = LINE('',#722,#723);
#722 = CARTESIAN_POINT('',(-29.2,17.3,9.1));
#723 = VECTOR('',#724,1.);
#724 = DIRECTION('',(1.,1.731912112471E-16,-1.731912112471E-16));
#725 = ORIENTED_EDGE('',*,*,#726,.T.);
#726 = EDGE_CURVE('',#717,#727,#729,.T.);
#727 = VERTEX_POINT('',#728);
#728 = CARTESIAN_POINT('',(-22.11651513899,17.3,3.1));
#729 = LINE('',#730,#731);
#730 = CARTESIAN_POINT('',(-22.11651513899,17.3,3.1));
#731 = VECTOR('',#732,1.);
#732 = DIRECTION('',(-1.731912112471E-16,2.999519565324E-32,-1.));
#733 = ORIENTED_EDGE('',*,*,#734,.T.);
#734 = EDGE_CURVE('',#727,#735,#737,.T.);
#735 = VERTEX_POINT('',#736);
#736 = CARTESIAN_POINT('',(-20.283484861,17.3,3.1));
#737 = LINE('',#738,#739);
#738 = CARTESIAN_POINT('',(-29.2,17.3,3.1));
#739 = VECTOR('',#740,1.);
#740 = DIRECTION('',(1.,1.731912112471E-16,-1.731912112471E-16));
#741 = ORIENTED_EDGE('',*,*,#742,.F.);
#742 = EDGE_CURVE('',#719,#735,#743,.T.);
#743 = LINE('',#744,#745);
#744 = CARTESIAN_POINT('',(-20.283484861,17.3,3.1));
#745 = VECTOR('',#746,1.);
#746 = DIRECTION('',(-1.731912112471E-16,2.999519565324E-32,-1.));
#747 = PLANE('',#748);
#748 = AXIS2_PLACEMENT_3D('',#749,#750,#751);
#749 = CARTESIAN_POINT('',(-37.2,17.3,-0.2));
#750 = DIRECTION('',(-1.731912112471E-16,1.,-2.999519565324E-32));
#751 = DIRECTION('',(6.216890878458E-17,-4.922328269216E-32,1.));
#752 = ADVANCED_FACE('',(#753),#826,.F.);
#753 = FACE_BOUND('',#754,.F.);
#754 = EDGE_LOOP('',(#755,#763,#764,#772,#780,#788,#796,#802,#803,#804,
    #812,#820));
#755 = ORIENTED_EDGE('',*,*,#756,.F.);
#756 = EDGE_CURVE('',#588,#757,#759,.T.);
#757 = VERTEX_POINT('',#758);
#758 = CARTESIAN_POINT('',(-26.7,17.3,12.4));
#759 = LINE('',#760,#761);
#760 = CARTESIAN_POINT('',(-37.2,17.3,12.4));
#761 = VECTOR('',#762,1.);
#762 = DIRECTION('',(1.,1.731912112471E-16,-6.216890878458E-17));
#763 = ORIENTED_EDGE('',*,*,#595,.F.);
#764 = ORIENTED_EDGE('',*,*,#765,.T.);
#765 = EDGE_CURVE('',#572,#766,#768,.T.);
#766 = VERTEX_POINT('',#767);
#767 = CARTESIAN_POINT('',(-26.7,-17.3,12.4));
#768 = LINE('',#769,#770);
#769 = CARTESIAN_POINT('',(-37.2,-17.3,12.4));
#770 = VECTOR('',#771,1.);
#771 = DIRECTION('',(1.,1.731912112471E-16,-6.216890878458E-17));
#772 = ORIENTED_EDGE('',*,*,#773,.T.);
#773 = EDGE_CURVE('',#766,#774,#776,.T.);
#774 = VERTEX_POINT('',#775);
#775 = CARTESIAN_POINT('',(-26.7,-10.3,12.4));
#776 = LINE('',#777,#778);
#777 = CARTESIAN_POINT('',(-26.7,-17.3,12.4));
#778 = VECTOR('',#779,1.);
#779 = DIRECTION('',(-1.731912112471E-16,1.,-2.999519565324E-32));
#780 = ORIENTED_EDGE('',*,*,#781,.T.);
#781 = EDGE_CURVE('',#774,#782,#784,.T.);
#782 = VERTEX_POINT('',#783);
#783 = CARTESIAN_POINT('',(-25.2,-10.3,12.4));
#784 = LINE('',#785,#786);
#785 = CARTESIAN_POINT('',(-26.7,-10.3,12.4));
#786 = VECTOR('',#787,1.);
#787 = DIRECTION('',(1.,1.731912112471E-16,-6.216890878458E-17));
#788 = ORIENTED_EDGE('',*,*,#789,.F.);
#789 = EDGE_CURVE('',#790,#782,#792,.T.);
#790 = VERTEX_POINT('',#791);
#791 = CARTESIAN_POINT('',(-25.2,-17.3,12.4));
#792 = LINE('',#793,#794);
#793 = CARTESIAN_POINT('',(-25.2,-17.3,12.4));
#794 = VECTOR('',#795,1.);
#795 = DIRECTION('',(-1.731912112471E-16,1.,-2.999519565324E-32));
#796 = ORIENTED_EDGE('',*,*,#797,.T.);
#797 = EDGE_CURVE('',#790,#486,#798,.T.);
#798 = LINE('',#799,#800);
#799 = CARTESIAN_POINT('',(-37.2,-17.3,12.4));
#800 = VECTOR('',#801,1.);
#801 = DIRECTION('',(1.,1.731912112471E-16,-6.216890878458E-17));
#802 = ORIENTED_EDGE('',*,*,#493,.F.);
#803 = ORIENTED_EDGE('',*,*,#707,.F.);
#804 = ORIENTED_EDGE('',*,*,#805,.F.);
#805 = EDGE_CURVE('',#806,#700,#808,.T.);
#806 = VERTEX_POINT('',#807);
#807 = CARTESIAN_POINT('',(-25.2,10.3,12.4));
#808 = LINE('',#809,#810);
#809 = CARTESIAN_POINT('',(-25.2,10.3,12.4));
#810 = VECTOR('',#811,1.);
#811 = DIRECTION('',(-1.731912112471E-16,1.,-2.999519565324E-32));
#812 = ORIENTED_EDGE('',*,*,#813,.F.);
#813 = EDGE_CURVE('',#814,#806,#816,.T.);
#814 = VERTEX_POINT('',#815);
#815 = CARTESIAN_POINT('',(-26.7,10.3,12.4));
#816 = LINE('',#817,#818);
#817 = CARTESIAN_POINT('',(-26.7,10.3,12.4));
#818 = VECTOR('',#819,1.);
#819 = DIRECTION('',(1.,1.731912112471E-16,-6.216890878458E-17));
#820 = ORIENTED_EDGE('',*,*,#821,.T.);
#821 = EDGE_CURVE('',#814,#757,#822,.T.);
#822 = LINE('',#823,#824);
#823 = CARTESIAN_POINT('',(-26.7,10.3,12.4));
#824 = VECTOR('',#825,1.);
#825 = DIRECTION('',(-1.731912112471E-16,1.,-2.999519565324E-32));
#826 = PLANE('',#827);
#827 = AXIS2_PLACEMENT_3D('',#828,#829,#830);
#828 = CARTESIAN_POINT('',(-37.2,-17.3,12.4));
#829 = DIRECTION('',(6.216890878458E-17,-4.922328269216E-32,1.));
#830 = DIRECTION('',(1.,1.731912112471E-16,-6.216890878458E-17));
#831 = ADVANCED_FACE('',(#832,#843),#877,.T.);
#832 = FACE_BOUND('',#833,.T.);
#833 = EDGE_LOOP('',(#834,#835,#841,#842));
#834 = ORIENTED_EDGE('',*,*,#653,.F.);
#835 = ORIENTED_EDGE('',*,*,#836,.T.);
#836 = EDGE_CURVE('',#646,#790,#837,.T.);
#837 = LINE('',#838,#839);
#838 = CARTESIAN_POINT('',(-25.2,-17.3,-0.2));
#839 = VECTOR('',#840,1.);
#840 = DIRECTION('',(6.216890878458E-17,-4.922328269216E-32,1.));
#841 = ORIENTED_EDGE('',*,*,#797,.T.);
#842 = ORIENTED_EDGE('',*,*,#485,.F.);
#843 = FACE_BOUND('',#844,.T.);
#844 = EDGE_LOOP('',(#845,#855,#863,#871));
#845 = ORIENTED_EDGE('',*,*,#846,.F.);
#846 = EDGE_CURVE('',#847,#849,#851,.T.);
#847 = VERTEX_POINT('',#848);
#848 = CARTESIAN_POINT('',(-22.11651513899,-17.3,9.1));
#849 = VERTEX_POINT('',#850);
#850 = CARTESIAN_POINT('',(-20.283484861,-17.3,9.1));
#851 = LINE('',#852,#853);
#852 = CARTESIAN_POINT('',(-29.2,-17.3,9.1));
#853 = VECTOR('',#854,1.);
#854 = DIRECTION('',(1.,1.731912112471E-16,-1.731912112471E-16));
#855 = ORIENTED_EDGE('',*,*,#856,.T.);
#856 = EDGE_CURVE('',#847,#857,#859,.T.);
#857 = VERTEX_POINT('',#858);
#858 = CARTESIAN_POINT('',(-22.11651513899,-17.3,3.1));
#859 = LINE('',#860,#861);
#860 = CARTESIAN_POINT('',(-22.11651513899,-17.3,3.1));
#861 = VECTOR('',#862,1.);
#862 = DIRECTION('',(-1.731912112471E-16,2.999519565324E-32,-1.));
#863 = ORIENTED_EDGE('',*,*,#864,.T.);
#864 = EDGE_CURVE('',#857,#865,#867,.T.);
#865 = VERTEX_POINT('',#866);
#866 = CARTESIAN_POINT('',(-20.283484861,-17.3,3.1));
#867 = LINE('',#868,#869);
#868 = CARTESIAN_POINT('',(-29.2,-17.3,3.1));
#869 = VECTOR('',#870,1.);
#870 = DIRECTION('',(1.,1.731912112471E-16,-1.731912112471E-16));
#871 = ORIENTED_EDGE('',*,*,#872,.F.);
#872 = EDGE_CURVE('',#849,#865,#873,.T.);
#873 = LINE('',#874,#875);
#874 = CARTESIAN_POINT('',(-20.283484861,-17.3,3.1));
#875 = VECTOR('',#876,1.);
#876 = DIRECTION('',(-1.731912112471E-16,2.999519565324E-32,-1.));
#877 = PLANE('',#878);
#878 = AXIS2_PLACEMENT_3D('',#879,#880,#881);
#879 = CARTESIAN_POINT('',(-37.2,-17.3,-0.2));
#880 = DIRECTION('',(-1.731912112471E-16,1.,-2.999519565324E-32));
#881 = DIRECTION('',(6.216890878458E-17,-4.922328269216E-32,1.));
#882 = ADVANCED_FACE('',(#883),#894,.T.);
#883 = FACE_BOUND('',#884,.T.);
#884 = EDGE_LOOP('',(#885,#886,#887,#888));
#885 = ORIENTED_EDGE('',*,*,#621,.F.);
#886 = ORIENTED_EDGE('',*,*,#569,.T.);
#887 = ORIENTED_EDGE('',*,*,#765,.T.);
#888 = ORIENTED_EDGE('',*,*,#889,.F.);
#889 = EDGE_CURVE('',#622,#766,#890,.T.);
#890 = LINE('',#891,#892);
#891 = CARTESIAN_POINT('',(-26.7,-17.3,-0.2));
#892 = VECTOR('',#893,1.);
#893 = DIRECTION('',(6.216890878458E-17,-4.922328269216E-32,1.));
#894 = PLANE('',#895);
#895 = AXIS2_PLACEMENT_3D('',#896,#897,#898);
#896 = CARTESIAN_POINT('',(-37.2,-17.3,-0.2));
#897 = DIRECTION('',(-1.731912112471E-16,1.,-2.999519565324E-32));
#898 = DIRECTION('',(6.216890878458E-17,-4.922328269216E-32,1.));
#899 = ADVANCED_FACE('',(#900),#911,.F.);
#900 = FACE_BOUND('',#901,.F.);
#901 = EDGE_LOOP('',(#902,#903,#904,#905));
#902 = ORIENTED_EDGE('',*,*,#612,.F.);
#903 = ORIENTED_EDGE('',*,*,#587,.T.);
#904 = ORIENTED_EDGE('',*,*,#756,.T.);
#905 = ORIENTED_EDGE('',*,*,#906,.F.);
#906 = EDGE_CURVE('',#613,#757,#907,.T.);
#907 = LINE('',#908,#909);
#908 = CARTESIAN_POINT('',(-26.7,17.3,-0.2));
#909 = VECTOR('',#910,1.);
#910 = DIRECTION('',(6.216890878458E-17,-4.922328269216E-32,1.));
#911 = PLANE('',#912);
#912 = AXIS2_PLACEMENT_3D('',#913,#914,#915);
#913 = CARTESIAN_POINT('',(-37.2,17.3,-0.2));
#914 = DIRECTION('',(-1.731912112471E-16,1.,-2.999519565324E-32));
#915 = DIRECTION('',(6.216890878458E-17,-4.922328269216E-32,1.));
#916 = ADVANCED_FACE('',(#917),#928,.F.);
#917 = FACE_BOUND('',#918,.F.);
#918 = EDGE_LOOP('',(#919,#925,#926,#927));
#919 = ORIENTED_EDGE('',*,*,#920,.F.);
#920 = EDGE_CURVE('',#677,#814,#921,.T.);
#921 = LINE('',#922,#923);
#922 = CARTESIAN_POINT('',(-26.7,10.3,-0.2));
#923 = VECTOR('',#924,1.);
#924 = DIRECTION('',(6.216890878458E-17,-4.922328269216E-32,1.));
#925 = ORIENTED_EDGE('',*,*,#684,.T.);
#926 = ORIENTED_EDGE('',*,*,#906,.T.);
#927 = ORIENTED_EDGE('',*,*,#821,.F.);
#928 = PLANE('',#929);
#929 = AXIS2_PLACEMENT_3D('',#930,#931,#932);
#930 = CARTESIAN_POINT('',(-26.7,10.3,-0.2));
#931 = DIRECTION('',(1.,1.731912112471E-16,-6.216890878458E-17));
#932 = DIRECTION('',(6.216890878458E-17,-4.922328269216E-32,1.));
#933 = ADVANCED_FACE('',(#934),#945,.F.);
#934 = FACE_BOUND('',#935,.F.);
#935 = EDGE_LOOP('',(#936,#937,#938,#939));
#936 = ORIENTED_EDGE('',*,*,#676,.F.);
#937 = ORIENTED_EDGE('',*,*,#920,.T.);
#938 = ORIENTED_EDGE('',*,*,#813,.T.);
#939 = ORIENTED_EDGE('',*,*,#940,.F.);
#940 = EDGE_CURVE('',#669,#806,#941,.T.);
#941 = LINE('',#942,#943);
#942 = CARTESIAN_POINT('',(-25.2,10.3,-0.2));
#943 = VECTOR('',#944,1.);
#944 = DIRECTION('',(6.216890878458E-17,-4.922328269216E-32,1.));
#945 = PLANE('',#946);
#946 = AXIS2_PLACEMENT_3D('',#947,#948,#949);
#947 = CARTESIAN_POINT('',(-26.7,10.3,-0.2));
#948 = DIRECTION('',(-1.731912112471E-16,1.,-2.999519565324E-32));
#949 = DIRECTION('',(6.216890878458E-17,-4.922328269216E-32,1.));
#950 = ADVANCED_FACE('',(#951),#957,.T.);
#951 = FACE_BOUND('',#952,.T.);
#952 = EDGE_LOOP('',(#953,#954,#955,#956));
#953 = ORIENTED_EDGE('',*,*,#940,.F.);
#954 = ORIENTED_EDGE('',*,*,#668,.T.);
#955 = ORIENTED_EDGE('',*,*,#699,.T.);
#956 = ORIENTED_EDGE('',*,*,#805,.F.);
#957 = PLANE('',#958);
#958 = AXIS2_PLACEMENT_3D('',#959,#960,#961);
#959 = CARTESIAN_POINT('',(-25.2,10.3,-0.2));
#960 = DIRECTION('',(1.,1.731912112471E-16,-6.216890878458E-17));
#961 = DIRECTION('',(6.216890878458E-17,-4.922328269216E-32,1.));
#962 = ADVANCED_FACE('',(#963),#974,.T.);
#963 = FACE_BOUND('',#964,.T.);
#964 = EDGE_LOOP('',(#965,#966,#967,#973));
#965 = ORIENTED_EDGE('',*,*,#836,.F.);
#966 = ORIENTED_EDGE('',*,*,#645,.T.);
#967 = ORIENTED_EDGE('',*,*,#968,.T.);
#968 = EDGE_CURVE('',#638,#782,#969,.T.);
#969 = LINE('',#970,#971);
#970 = CARTESIAN_POINT('',(-25.2,-10.3,-0.2));
#971 = VECTOR('',#972,1.);
#972 = DIRECTION('',(6.216890878458E-17,-4.922328269216E-32,1.));
#973 = ORIENTED_EDGE('',*,*,#789,.F.);
#974 = PLANE('',#975);
#975 = AXIS2_PLACEMENT_3D('',#976,#977,#978);
#976 = CARTESIAN_POINT('',(-25.2,-17.3,-0.2));
#977 = DIRECTION('',(1.,1.731912112471E-16,-6.216890878458E-17));
#978 = DIRECTION('',(6.216890878458E-17,-4.922328269216E-32,1.));
#979 = ADVANCED_FACE('',(#980),#991,.T.);
#980 = FACE_BOUND('',#981,.T.);
#981 = EDGE_LOOP('',(#982,#983,#989,#990));
#982 = ORIENTED_EDGE('',*,*,#637,.F.);
#983 = ORIENTED_EDGE('',*,*,#984,.T.);
#984 = EDGE_CURVE('',#630,#774,#985,.T.);
#985 = LINE('',#986,#987);
#986 = CARTESIAN_POINT('',(-26.7,-10.3,-0.2));
#987 = VECTOR('',#988,1.);
#988 = DIRECTION('',(6.216890878458E-17,-4.922328269216E-32,1.));
#989 = ORIENTED_EDGE('',*,*,#781,.T.);
#990 = ORIENTED_EDGE('',*,*,#968,.F.);
#991 = PLANE('',#992);
#992 = AXIS2_PLACEMENT_3D('',#993,#994,#995);
#993 = CARTESIAN_POINT('',(-26.7,-10.3,-0.2));
#994 = DIRECTION('',(-1.731912112471E-16,1.,-2.999519565324E-32));
#995 = DIRECTION('',(6.216890878458E-17,-4.922328269216E-32,1.));
#996 = ADVANCED_FACE('',(#997),#1003,.F.);
#997 = FACE_BOUND('',#998,.F.);
#998 = EDGE_LOOP('',(#999,#1000,#1001,#1002));
#999 = ORIENTED_EDGE('',*,*,#889,.F.);
#1000 = ORIENTED_EDGE('',*,*,#629,.T.);
#1001 = ORIENTED_EDGE('',*,*,#984,.T.);
#1002 = ORIENTED_EDGE('',*,*,#773,.F.);
#1003 = PLANE('',#1004);
#1004 = AXIS2_PLACEMENT_3D('',#1005,#1006,#1007);
#1005 = CARTESIAN_POINT('',(-26.7,-17.3,-0.2));
#1006 = DIRECTION('',(1.,1.731912112471E-16,-6.216890878458E-17));
#1007 = DIRECTION('',(6.216890878458E-17,-4.922328269216E-32,1.));
#1008 = ADVANCED_FACE('',(#1009),#1019,.T.);
#1009 = FACE_BOUND('',#1010,.T.);
#1010 = EDGE_LOOP('',(#1011,#1012));
#1011 = ORIENTED_EDGE('',*,*,#716,.F.);
#1012 = ORIENTED_EDGE('',*,*,#1013,.T.);
#1013 = EDGE_CURVE('',#717,#719,#1014,.T.);
#1014 = CIRCLE('',#1015,1.);
#1015 = AXIS2_PLACEMENT_3D('',#1016,#1017,#1018);
#1016 = CARTESIAN_POINT('',(-21.2,17.7,9.1));
#1017 = DIRECTION('',(1.731912112471E-16,5.999039130647E-32,1.));
#1018 = DIRECTION('',(1.,1.731912112471E-16,-1.731912112471E-16));
#1019 = PLANE('',#1020);
#1020 = AXIS2_PLACEMENT_3D('',#1021,#1022,#1023);
#1021 = CARTESIAN_POINT('',(-21.2,17.7,9.1));
#1022 = DIRECTION('',(1.731912112471E-16,-2.999519565324E-32,1.));
#1023 = DIRECTION('',(1.,1.731912112471E-16,-1.731912112471E-16));
#1024 = ADVANCED_FACE('',(#1025),#1037,.T.);
#1025 = FACE_BOUND('',#1026,.F.);
#1026 = EDGE_LOOP('',(#1027,#1034,#1035,#1036));
#1027 = ORIENTED_EDGE('',*,*,#1028,.F.);
#1028 = EDGE_CURVE('',#727,#735,#1029,.T.);
#1029 = CIRCLE('',#1030,1.);
#1030 = AXIS2_PLACEMENT_3D('',#1031,#1032,#1033);
#1031 = CARTESIAN_POINT('',(-21.2,17.7,3.1));
#1032 = DIRECTION('',(1.731912112471E-16,5.999039130647E-32,1.));
#1033 = DIRECTION('',(1.,1.731912112471E-16,-1.731912112471E-16));
#1034 = ORIENTED_EDGE('',*,*,#726,.F.);
#1035 = ORIENTED_EDGE('',*,*,#1013,.T.);
#1036 = ORIENTED_EDGE('',*,*,#742,.T.);
#1037 = CYLINDRICAL_SURFACE('',#1038,1.);
#1038 = AXIS2_PLACEMENT_3D('',#1039,#1040,#1041);
#1039 = CARTESIAN_POINT('',(-21.2,17.7,3.1));
#1040 = DIRECTION('',(-1.731912112471E-16,2.999519565324E-32,-1.));
#1041 = DIRECTION('',(1.,1.731912112471E-16,-1.731912112471E-16));
#1042 = ADVANCED_FACE('',(#1043),#1047,.F.);
#1043 = FACE_BOUND('',#1044,.F.);
#1044 = EDGE_LOOP('',(#1045,#1046));
#1045 = ORIENTED_EDGE('',*,*,#734,.F.);
#1046 = ORIENTED_EDGE('',*,*,#1028,.T.);
#1047 = PLANE('',#1048);
#1048 = AXIS2_PLACEMENT_3D('',#1049,#1050,#1051);
#1049 = CARTESIAN_POINT('',(-21.2,17.7,3.1));
#1050 = DIRECTION('',(1.731912112471E-16,-2.999519565324E-32,1.));
#1051 = DIRECTION('',(1.,1.731912112471E-16,-1.731912112471E-16));
#1052 = ADVANCED_FACE('',(#1053),#1063,.T.);
#1053 = FACE_BOUND('',#1054,.T.);
#1054 = EDGE_LOOP('',(#1055,#1056));
#1055 = ORIENTED_EDGE('',*,*,#846,.T.);
#1056 = ORIENTED_EDGE('',*,*,#1057,.T.);
#1057 = EDGE_CURVE('',#849,#847,#1058,.T.);
#1058 = CIRCLE('',#1059,1.);
#1059 = AXIS2_PLACEMENT_3D('',#1060,#1061,#1062);
#1060 = CARTESIAN_POINT('',(-21.2,-17.7,9.1));
#1061 = DIRECTION('',(1.731912112471E-16,5.999039130647E-32,1.));
#1062 = DIRECTION('',(1.,1.731912112471E-16,-1.731912112471E-16));
#1063 = PLANE('',#1064);
#1064 = AXIS2_PLACEMENT_3D('',#1065,#1066,#1067);
#1065 = CARTESIAN_POINT('',(-21.2,-17.7,9.1));
#1066 = DIRECTION('',(1.731912112471E-16,-2.999519565324E-32,1.));
#1067 = DIRECTION('',(1.,1.731912112471E-16,-1.731912112471E-16));
#1068 = ADVANCED_FACE('',(#1069),#1081,.T.);
#1069 = FACE_BOUND('',#1070,.F.);
#1070 = EDGE_LOOP('',(#1071,#1078,#1079,#1080));
#1071 = ORIENTED_EDGE('',*,*,#1072,.F.);
#1072 = EDGE_CURVE('',#865,#857,#1073,.T.);
#1073 = CIRCLE('',#1074,1.);
#1074 = AXIS2_PLACEMENT_3D('',#1075,#1076,#1077);
#1075 = CARTESIAN_POINT('',(-21.2,-17.7,3.1));
#1076 = DIRECTION('',(1.731912112471E-16,5.999039130647E-32,1.));
#1077 = DIRECTION('',(1.,1.731912112471E-16,-1.731912112471E-16));
#1078 = ORIENTED_EDGE('',*,*,#872,.F.);
#1079 = ORIENTED_EDGE('',*,*,#1057,.T.);
#1080 = ORIENTED_EDGE('',*,*,#856,.T.);
#1081 = CYLINDRICAL_SURFACE('',#1082,1.);
#1082 = AXIS2_PLACEMENT_3D('',#1083,#1084,#1085);
#1083 = CARTESIAN_POINT('',(-21.2,-17.7,3.1));
#1084 = DIRECTION('',(-1.731912112471E-16,2.999519565324E-32,-1.));
#1085 = DIRECTION('',(1.,1.731912112471E-16,-1.731912112471E-16));
#1086 = ADVANCED_FACE('',(#1087),#1091,.F.);
#1087 = FACE_BOUND('',#1088,.F.);
#1088 = EDGE_LOOP('',(#1089,#1090));
#1089 = ORIENTED_EDGE('',*,*,#864,.T.);
#1090 = ORIENTED_EDGE('',*,*,#1072,.T.);
#1091 = PLANE('',#1092);
#1092 = AXIS2_PLACEMENT_3D('',#1093,#1094,#1095);
#1093 = CARTESIAN_POINT('',(-21.2,-17.7,3.1));
#1094 = DIRECTION('',(1.731912112471E-16,-2.999519565324E-32,1.));
#1095 = DIRECTION('',(1.,1.731912112471E-16,-1.731912112471E-16));
#1096 = ( GEOMETRIC_REPRESENTATION_CONTEXT(3) 
GLOBAL_UNCERTAINTY_ASSIGNED_CONTEXT((#1100)) 
GLOBAL_UNIT_ASSIGNED_CONTEXT((#1097,#1098,#1099)) REPRESENTATION_CONTEXT
('Context #1','3D Context with UNIT and UNCERTAINTY') );
#1097 = ( LENGTH_UNIT() NAMED_UNIT(*) SI_UNIT(.MILLI.,.METRE.) );
#1098 = ( NAMED_UNIT(*) PLANE_ANGLE_UNIT() SI_UNIT($,.RADIAN.) );
#1099 = ( NAMED_UNIT(*) SI_UNIT($,.STERADIAN.) SOLID_ANGLE_UNIT() );
#1100 = UNCERTAINTY_MEASURE_WITH_UNIT(LENGTH_MEASURE(1.E-05),#1097,
  'distance_accuracy_value','confusion accuracy');
#1101 = PRODUCT_RELATED_PRODUCT_CATEGORY('part',$,(#7));
ENDSEC;
END-ISO-10303-21;
